<svg width="250" height="250" viewBox="0 0 250 250" fill="none" xmlns="http://www.w3.org/2000/svg">
<g clip-path="url(#clip0_19_3865)">
<path d="M125 229.166C182.53 229.166 229.167 182.53 229.167 125C229.167 67.4701 182.53 20.833 125 20.833C67.4703 20.833 20.8334 67.4701 20.8334 125C20.8334 182.53 67.4703 229.166 125 229.166Z" fill="url(#paint0_linear_19_3865)"/>
<g filter="url(#filter0_f_19_3865)">
<path d="M125 201.087C167.022 201.087 201.087 167.022 201.087 125C201.087 82.9784 167.022 48.9131 125 48.9131C82.9784 48.9131 48.9131 82.9784 48.9131 125C48.9131 167.022 82.9784 201.087 125 201.087Z" fill="url(#paint1_linear_19_3865)"/>
</g>
<path fill-rule="evenodd" clip-rule="evenodd" d="M117.841 40.3808C119.583 40.3808 120.996 38.968 120.996 37.2252C120.996 35.4826 119.583 34.0698 117.841 34.0698C116.098 34.0698 114.686 35.4826 114.686 37.2252C114.686 38.968 116.098 40.3808 117.841 40.3808ZM117.841 42.7474C120.89 42.7474 123.363 40.275 123.363 37.2252C123.363 34.1755 120.89 31.7031 117.841 31.7031C114.791 31.7031 112.319 34.1755 112.319 37.2252C112.319 40.275 114.791 42.7474 117.841 42.7474Z" fill="white"/>
<path fill-rule="evenodd" clip-rule="evenodd" d="M42.6598 185.308C44.4026 185.308 45.8153 183.895 45.8153 182.153C45.8153 180.41 44.4026 178.998 42.6598 178.998C40.9171 178.998 39.5044 180.41 39.5044 182.153C39.5044 183.895 40.9171 185.308 42.6598 185.308ZM42.6598 187.675C45.7096 187.675 48.182 185.202 48.182 182.153C48.182 179.103 45.7096 176.631 42.6598 176.631C39.6101 176.631 37.1377 179.103 37.1377 182.153C37.1377 185.202 39.6101 187.675 42.6598 187.675Z" fill="white"/>
<path fill-rule="evenodd" clip-rule="evenodd" d="M215.668 178.061C217.411 178.061 218.824 176.648 218.824 174.906C218.824 173.163 217.411 171.751 215.668 171.751C213.926 171.751 212.514 173.163 212.514 174.906C212.514 176.648 213.926 178.061 215.668 178.061ZM215.668 180.428C218.718 180.428 221.191 177.955 221.191 174.906C221.191 171.856 218.718 169.384 215.668 169.384C212.619 169.384 210.147 171.856 210.147 174.906C210.147 177.955 212.619 180.428 215.668 180.428Z" fill="white"/>
<path d="M66.4774 54.519C66.7094 53.5575 68.0771 53.5575 68.3092 54.519L69.0903 57.755C69.1733 58.0986 69.4416 58.3669 69.7852 58.4499L73.0212 59.231C73.9827 59.4631 73.9827 60.8308 73.0212 61.0628L69.7852 61.844C69.4416 61.9269 69.1733 62.1952 69.0903 62.5388L68.3092 65.7749C68.0771 66.7364 66.7094 66.7364 66.4774 65.7749L65.6962 62.5388C65.6132 62.1952 65.345 61.9269 65.0014 61.844L61.7653 61.0628C60.8038 60.8308 60.8038 59.4631 61.7653 59.231L65.0014 58.4499C65.345 58.3669 65.6132 58.0986 65.6962 57.755L66.4774 54.519Z" fill="white"/>
<path d="M200.449 196.188C200.704 195.134 202.203 195.134 202.457 196.188L203.313 199.735C203.404 200.111 203.698 200.406 204.075 200.496L207.622 201.353C208.676 201.607 208.676 203.106 207.622 203.361L204.075 204.217C203.698 204.308 203.404 204.602 203.313 204.978L202.457 208.525C202.203 209.58 200.704 209.58 200.449 208.525L199.592 204.978C199.502 204.602 199.207 204.308 198.832 204.217L195.284 203.361C194.23 203.106 194.23 201.607 195.284 201.353L198.832 200.496C199.207 200.406 199.502 200.111 199.592 199.735L200.449 196.188Z" fill="url(#paint2_linear_19_3865)"/>
<path d="M51.6585 209.454C52.8578 209.262 53.8152 210.44 53.3819 211.575L50.4571 219.233C50.0237 220.368 48.5246 220.608 47.7587 219.665L42.5885 213.303C41.8225 212.361 42.3641 210.943 43.5634 210.75L51.6585 209.454Z" fill="url(#paint3_linear_19_3865)"/>
<path d="M205.598 62.5064C205.298 61.3295 206.384 60.2691 207.553 60.5977L215.447 62.8157C216.615 63.1442 216.991 64.6153 216.121 65.4637L210.255 71.1898C209.385 72.0381 207.924 71.6274 207.623 70.4505L205.598 62.5064Z" fill="url(#paint4_linear_19_3865)"/>
<path d="M179.318 117.492L162.205 120.819C157.335 121.765 154.156 126.479 155.102 131.348C156.049 136.217 160.763 139.396 165.631 138.45L182.746 135.123C187.614 134.177 190.794 129.463 189.847 124.594C188.901 119.726 184.187 116.545 179.318 117.492Z" fill="url(#paint5_linear_19_3865)"/>
<path d="M186.044 126.272C186.13 124.056 184.403 122.189 182.186 122.103C179.969 122.016 178.102 123.743 178.016 125.96C177.929 128.176 179.657 130.043 181.873 130.13C184.091 130.216 185.957 128.489 186.044 126.272Z" fill="#EBEBEB"/>
<path d="M182.447 128.274C183.639 128.042 184.417 126.888 184.186 125.697C183.954 124.505 182.8 123.727 181.608 123.958C180.417 124.189 179.638 125.343 179.87 126.535C180.101 127.727 181.255 128.506 182.447 128.274Z" fill="#DBDBDB"/>
<path d="M152.184 90.4435L64.8022 107.429C59.8915 108.383 56.6844 113.138 57.6389 118.049L69.4452 178.786C70.3997 183.697 75.1543 186.904 80.065 185.949L167.447 168.964C172.358 168.01 175.564 163.255 174.61 158.344L162.803 97.6066C161.85 92.6963 157.095 89.489 152.184 90.4435Z" fill="url(#paint6_linear_19_3865)"/>
<path d="M150.587 62.825L168.437 108.962C169.436 111.541 168.151 114.442 165.577 115.439L92.4039 143.748C89.8294 144.746 86.929 143.461 85.9296 140.883L68.0804 94.745C67.1538 92.3446 68.3442 89.6475 70.7452 88.7211L144.561 60.1659C146.962 59.2395 149.658 60.4297 150.585 62.8308L150.587 62.825Z" fill="url(#paint7_linear_19_3865)"/>
<path d="M154.024 107.061C154.939 109.434 153.763 112.101 151.39 113.016C149.019 113.932 146.351 112.754 145.436 110.382C144.52 108.011 145.697 105.343 148.07 104.427C150.441 103.512 153.11 104.69 154.024 107.061Z" fill="url(#paint8_linear_19_3865)"/>
<path d="M159.311 105.013C160.227 107.385 159.049 110.053 156.678 110.969C154.305 111.884 151.638 110.706 150.722 108.335C149.807 105.962 150.985 103.295 153.356 102.38C155.728 101.464 158.396 102.642 159.311 105.013Z" fill="url(#paint9_linear_19_3865)"/>
<path d="M90.1343 90.3261L78.1458 94.9638C77.1792 95.3379 76.6988 96.4248 77.0727 97.3913L79.86 104.596C80.2339 105.563 81.3207 106.043 82.2873 105.669L94.2753 101.031C95.2427 100.658 95.7228 99.5707 95.3487 98.6042L92.5616 91.3995C92.1875 90.4326 91.1005 89.9522 90.1343 90.3261Z" fill="url(#paint10_linear_19_3865)"/>
<path d="M144.7 75.9629L137.69 78.6727C136.068 79.2956 134.247 78.4918 133.62 76.8708C132.997 75.2482 133.801 73.4273 135.422 72.8003L142.431 70.0904C144.053 69.4634 145.875 70.2714 146.502 71.8924C147.125 73.5149 146.321 75.3359 144.7 75.9629Z" fill="white"/>
<path d="M83.7417 116.318L83.2519 116.937C83.2519 116.937 83.2114 116.981 83.1822 116.992C83.1238 117.015 83.0609 117 83.0199 116.969C82.942 116.903 82.9318 116.801 82.9966 116.733L83.6609 115.871C83.7174 115.806 83.8313 115.791 83.8961 115.847C83.9313 115.877 83.9499 115.913 83.9617 115.956L85.5594 120.081C85.5914 120.164 85.5561 120.259 85.4644 120.295C85.3808 120.327 85.2827 120.283 85.2508 120.2L83.75 116.315L83.7417 116.318Z" fill="#F8F8F8"/>
<path d="M86.6085 119.536L87.9722 116.829C88.1329 116.499 88.1479 116.14 88.0246 115.818C87.9189 115.543 87.7089 115.308 87.4239 115.163C87.1026 115 86.7359 114.992 86.4247 115.116C86.141 115.226 85.9026 115.427 85.7541 115.714L85.6141 115.998C85.5756 116.084 85.4697 116.12 85.3956 116.076C85.309 116.037 85.2732 115.932 85.3165 115.858L85.4549 115.57C85.6425 115.211 85.9516 114.944 86.3062 114.808C86.6982 114.657 87.1522 114.655 87.5707 114.873C87.9424 115.056 88.202 115.358 88.3348 115.704C88.487 116.101 88.4822 116.562 88.2747 116.981L87.1071 119.301L89.2345 118.484C89.3163 118.448 89.4128 118.488 89.4481 118.579C89.48 118.662 89.4364 118.761 89.353 118.793L86.8492 119.763L86.8242 119.773C86.7783 119.791 86.7276 119.796 86.6898 119.772C86.6042 119.723 86.5674 119.627 86.6059 119.541L86.6085 119.536Z" fill="#F8F8F8"/>
<path d="M91.5932 113.084L90.894 114.726C91.1992 114.676 91.5217 114.705 91.8224 114.839C92.2318 115.021 92.5325 115.356 92.6829 115.748C92.8333 116.14 92.8378 116.588 92.6512 117C92.4691 117.41 92.1358 117.714 91.7454 117.869C91.3623 118.016 90.9139 118.02 90.5024 117.834C90.4174 117.799 90.3748 117.702 90.416 117.609C90.4488 117.519 90.5489 117.481 90.6412 117.522C90.9673 117.661 91.3161 117.661 91.6249 117.542C91.9338 117.423 92.1974 117.188 92.346 116.864C92.4918 116.534 92.4864 116.183 92.3677 115.874C92.249 115.565 92.0144 115.301 91.6883 115.163C91.3632 115.015 91.0117 115.021 90.7028 115.139C90.653 115.159 90.5969 115.151 90.5494 115.126L90.5411 115.13C90.4503 115.093 90.4103 114.989 90.453 114.9L91.1249 113.321L89.4021 113.982C89.3119 114.022 89.2138 113.979 89.1802 113.891C89.145 113.799 89.1886 113.701 89.2762 113.667L91.3786 112.86C91.4682 112.821 91.567 112.865 91.6005 112.952C91.6104 112.977 91.6114 113.006 91.6068 113.031C91.6068 113.055 91.6005 113.077 91.5923 113.094L91.5932 113.084Z" fill="#F8F8F8"/>
<path d="M96.6349 114.911L94.2029 115.853L94.182 115.862C94.1485 115.874 94.1078 115.881 94.0734 115.865C93.9828 115.843 93.9348 115.741 93.9692 115.656L95.3179 111.415L95.3224 111.403C95.3541 111.31 95.4384 111.268 95.5317 111.299C95.5643 111.311 95.5888 111.335 95.6105 111.355C95.615 111.368 95.6268 111.372 95.6286 111.377L95.6368 111.398L96.8279 114.478L97.1286 114.362C97.2201 114.327 97.3188 114.371 97.3505 114.454C97.3822 114.537 97.3388 114.635 97.2509 114.669L96.9511 114.785L97.2473 115.556C97.279 115.64 97.2355 115.737 97.1476 115.771C97.0643 115.804 96.9665 115.759 96.9339 115.676L96.6377 114.904L96.6349 114.911ZM96.5172 114.602L95.4982 111.973L94.3931 115.427L96.5199 114.61L96.5172 114.602Z" fill="#F8F8F8"/>
<path d="M102.449 113.214C102.359 113.177 102.319 113.073 102.363 112.988C102.402 112.902 102.505 112.858 102.592 112.9C102.919 113.039 103.268 113.039 103.576 112.92C103.885 112.802 104.14 112.57 104.287 112.241C104.434 111.911 104.429 111.563 104.311 111.255C104.191 110.942 103.956 110.679 103.632 110.534C103.311 110.395 102.957 110.397 102.649 110.515C102.335 110.635 102.076 110.869 101.929 111.198C101.89 111.284 101.786 111.324 101.704 111.284C101.678 111.28 101.658 111.264 101.648 111.248L101.644 111.24C101.644 111.24 101.631 111.231 101.628 111.223C101.615 111.213 101.607 111.192 101.601 111.176C101.597 111.168 101.596 111.153 101.592 111.14L101.108 109.245C101.089 109.195 101.098 109.143 101.126 109.104C101.141 109.069 101.174 109.043 101.216 109.026L103.31 108.223C103.399 108.183 103.497 108.227 103.532 108.314C103.568 108.41 103.523 108.505 103.436 108.538L101.475 109.291L101.832 110.695C102.008 110.468 102.244 110.297 102.515 110.193C102.908 110.043 103.344 110.033 103.761 110.222C104.179 110.401 104.468 110.73 104.622 111.131C104.769 111.515 104.785 111.968 104.594 112.381C104.41 112.786 104.073 113.093 103.686 113.242C103.294 113.392 102.845 113.397 102.436 113.215L102.449 113.214Z" fill="#F8F8F8"/>
<path d="M105.542 108.491C105.641 107.826 106.003 107.223 106.738 106.907C106.819 106.867 106.917 106.91 106.957 106.991C106.992 107.082 106.948 107.18 106.867 107.216C106.246 107.484 105.975 107.961 105.87 108.537C105.817 108.859 105.839 109.215 105.899 109.56C106.052 109.147 106.371 108.794 106.814 108.625C107.644 108.306 108.562 108.715 108.876 109.533C109.191 110.354 108.786 111.27 107.962 111.591C107.158 111.9 106.259 111.518 105.924 110.733C105.875 110.641 105.838 110.545 105.798 110.441C105.573 109.843 105.443 109.141 105.546 108.489L105.542 108.491ZM106.227 110.587C106.24 110.62 106.258 110.642 106.272 110.666C106.28 110.686 106.284 110.699 106.281 110.715C106.58 111.256 107.245 111.507 107.834 111.282C108.489 111.031 108.811 110.299 108.564 109.657C108.318 109.014 107.586 108.692 106.931 108.944C106.289 109.19 105.966 109.921 106.214 110.564L106.223 110.589L106.227 110.587Z" fill="#F8F8F8"/>
<path d="M111 110.169L111.136 105.585L108.962 106.419C108.88 106.454 108.784 106.415 108.752 106.332C108.72 106.249 108.764 106.15 108.847 106.118L111.225 105.205C111.253 105.18 111.283 105.169 111.321 105.169C111.366 105.175 111.414 105.2 111.441 105.232C111.457 105.25 111.467 105.261 111.473 105.278C111.486 105.311 111.486 105.339 111.479 105.371L111.339 110.177C111.336 110.245 111.292 110.306 111.234 110.327C111.208 110.337 111.196 110.342 111.166 110.339C111.074 110.337 111 110.255 110.996 110.17L111 110.169Z" fill="#F8F8F8"/>
<path d="M113.782 104.174C114.295 103.977 114.88 104.231 115.078 104.744C115.197 105.057 115.148 105.387 114.986 105.65C115.602 105.662 116.179 106.043 116.412 106.649C116.723 107.457 116.326 108.357 115.518 108.671C114.713 108.981 113.81 108.585 113.496 107.778C113.263 107.173 113.433 106.505 113.873 106.082C113.582 105.997 113.328 105.784 113.208 105.471C113.011 104.958 113.258 104.38 113.78 104.179L113.782 104.174ZM115.402 108.357C116.044 108.111 116.351 107.399 116.108 106.765C115.866 106.136 115.159 105.813 114.515 106.061C113.881 106.303 113.569 107.022 113.811 107.652C114.055 108.29 114.768 108.601 115.402 108.357ZM114.389 105.741C114.731 105.6 114.906 105.207 114.774 104.861C114.64 104.515 114.251 104.348 113.905 104.481C113.559 104.614 113.39 104.999 113.524 105.345C113.657 105.691 114.044 105.868 114.392 105.739L114.389 105.741Z" fill="#F8F8F8"/>
<path d="M121.766 101.087C122.538 100.79 123.381 101.118 123.748 101.824C123.761 101.834 123.764 101.842 123.774 101.853C123.828 101.971 123.882 102.098 123.933 102.231C124.162 102.828 124.292 103.539 124.197 104.189C124.092 104.841 123.727 105.46 123 105.772L122.992 105.776C122.9 105.811 122.805 105.776 122.773 105.692C122.738 105.6 122.774 105.51 122.863 105.466C123.474 105.198 123.764 104.719 123.86 104.145C123.909 103.816 123.899 103.465 123.831 103.123C123.678 103.536 123.353 103.875 122.903 104.048C122.085 104.362 121.168 103.968 120.845 103.139C120.532 102.322 120.94 101.404 121.758 101.09L121.766 101.087ZM123.512 102.106C123.265 101.464 122.541 101.148 121.886 101.4C121.244 101.646 120.92 102.374 121.165 103.012C121.417 103.667 122.143 103.976 122.785 103.73C123.44 103.479 123.764 102.761 123.507 102.107L123.512 102.106Z" fill="#F8F8F8"/>
<path d="M125.268 102.316C125.036 101.712 124.975 101.103 125.089 100.576C125.21 100.071 125.496 99.645 125.951 99.4702C126.406 99.2954 126.908 99.4186 127.335 99.7094C127.766 100.023 128.145 100.509 128.381 101.112C128.613 101.717 128.662 102.33 128.549 102.847C128.429 103.357 128.144 103.787 127.689 103.962C127.235 104.136 126.733 104.013 126.303 103.714C125.87 103.411 125.499 102.918 125.266 102.313L125.268 102.316ZM125.581 102.197C125.793 102.747 126.133 103.186 126.5 103.442C126.864 103.695 127.248 103.773 127.57 103.649C127.89 103.525 128.114 103.21 128.221 102.777C128.317 102.343 128.281 101.787 128.07 101.237C127.859 100.686 127.509 100.25 127.147 99.992C126.774 99.7293 126.399 99.6622 126.077 99.7854C125.755 99.9086 125.519 100.215 125.426 100.658C125.33 101.092 125.374 101.644 125.587 102.199L125.581 102.197Z" fill="#F8F8F8"/>
<path d="M129.764 98.5171L129.274 99.1367C129.274 99.1367 129.234 99.1802 129.205 99.1919C129.146 99.2146 129.083 99.2001 129.042 99.1684C128.964 99.1023 128.954 99.0008 129.019 98.9329L129.683 98.0697C129.74 98.0053 129.853 97.99 129.918 98.047C129.954 98.076 129.972 98.1122 129.984 98.1557L131.581 102.28C131.613 102.364 131.578 102.458 131.486 102.494C131.403 102.526 131.305 102.482 131.273 102.398L129.773 98.5144L129.764 98.5171Z" fill="#F8F8F8"/>
<path d="M132.629 101.731L133.993 99.0252C134.154 98.6955 134.168 98.335 134.045 98.0143C133.939 97.7389 133.73 97.5034 133.445 97.3594C133.123 97.1955 132.756 97.1882 132.446 97.3123C132.162 97.421 131.925 97.6266 131.774 97.9092L131.635 98.1927C131.596 98.2797 131.49 98.315 131.417 98.2716C131.33 98.2335 131.293 98.1275 131.337 98.0533L131.475 97.7661C131.663 97.4065 131.972 97.1393 132.325 96.9989C132.717 96.8485 133.171 96.8467 133.59 97.0641C133.961 97.2471 134.221 97.5496 134.354 97.8957C134.506 98.2915 134.501 98.7534 134.293 99.1728L133.126 101.493L135.254 100.676C135.335 100.639 135.434 100.683 135.467 100.771C135.499 100.854 135.456 100.952 135.372 100.984L132.869 101.955L132.843 101.964C132.797 101.982 132.746 101.987 132.709 101.964C132.623 101.915 132.586 101.819 132.625 101.733L132.629 101.731Z" fill="#F8F8F8"/>
<path d="M141.461 93.7928L140.761 95.4359C141.067 95.3852 141.389 95.4141 141.689 95.5482C142.1 95.7303 142.4 96.0645 142.551 96.4567C142.701 96.8489 142.706 97.2973 142.519 97.7085C142.336 98.1189 142.004 98.4232 141.617 98.5763C141.234 98.7239 140.781 98.7303 140.37 98.5437C140.284 98.5093 140.242 98.4105 140.284 98.3181C140.318 98.233 140.416 98.1904 140.508 98.2312C140.834 98.3698 141.184 98.3698 141.493 98.2511C141.801 98.1324 142.065 97.8969 142.213 97.5727C142.36 97.2439 142.353 96.8915 142.236 96.5826C142.117 96.2747 141.881 96.0102 141.555 95.8725C141.231 95.7239 140.879 95.7303 140.57 95.8489C140.52 95.868 140.465 95.8607 140.417 95.8353L140.409 95.839C140.318 95.8018 140.277 95.6977 140.321 95.6089L140.992 94.031L139.269 94.6922C139.179 94.7312 139.082 94.6877 139.047 94.5998C139.013 94.5084 139.056 94.4096 139.143 94.3761L141.245 93.569C141.336 93.5301 141.434 93.5736 141.467 93.6614C141.477 93.6868 141.478 93.7149 141.474 93.7402C141.474 93.7647 141.467 93.7855 141.46 93.8027L141.461 93.7928Z" fill="#F8F8F8"/>
<path d="M146.503 95.6198L144.067 96.5554L144.06 96.5627L144.048 96.5672C144.014 96.5799 143.976 96.5908 143.939 96.5708C143.849 96.5482 143.801 96.4467 143.835 96.3616L145.184 92.1207L145.188 92.1089C145.22 92.0156 145.304 91.9739 145.398 92.0056C145.43 92.0165 145.455 92.041 145.476 92.0609C145.481 92.0736 145.489 92.0799 145.495 92.0826L145.503 92.1034L146.694 95.1832L146.995 95.0681C147.086 95.0328 147.185 95.0763 147.216 95.1596C147.248 95.2429 147.205 95.3417 147.117 95.3752L146.817 95.4902L147.113 96.262C147.145 96.3453 147.101 96.4431 147.014 96.4766C146.93 96.5092 146.832 96.4658 146.8 96.3815L146.504 95.6098L146.503 95.6198ZM146.384 95.3118L145.366 92.6823L144.26 96.1361L146.388 95.3199L146.384 95.3118Z" fill="#F8F8F8"/>
<path d="M148.47 95.4095C148.379 95.3724 148.34 95.2682 148.384 95.1839C148.422 95.0979 148.527 95.0571 148.613 95.0961C148.939 95.2338 149.288 95.2338 149.597 95.116C149.906 94.9974 150.161 94.7655 150.308 94.4358C150.455 94.107 150.45 93.7591 150.331 93.4503C150.211 93.1378 149.976 92.8742 149.653 92.7301C149.33 92.5861 148.977 92.5916 148.669 92.7102C148.356 92.8307 148.097 93.0644 147.95 93.3932C147.911 93.4801 147.809 93.5236 147.725 93.4792C147.699 93.4747 147.678 93.4593 147.668 93.4439L147.665 93.4358C147.665 93.4358 147.652 93.4267 147.649 93.4176C147.635 93.4086 147.628 93.3878 147.621 93.3714C147.618 93.3624 147.617 93.3488 147.612 93.3361L147.129 91.4403C147.11 91.3896 147.119 91.3388 147.147 91.299C147.162 91.2646 147.195 91.2374 147.236 91.222L149.33 90.4179C149.42 90.3785 149.518 90.4222 149.552 90.5098C149.589 90.606 149.543 90.6993 149.456 90.7329L147.495 91.4856L147.852 92.8896C148.031 92.6686 148.264 92.4919 148.536 92.3887C148.927 92.2374 149.364 92.2283 149.782 92.4176C150.2 92.597 150.489 92.9258 150.643 93.3262C150.79 93.7102 150.806 94.1631 150.615 94.5762C150.431 94.982 150.094 95.2881 149.706 95.4376C149.314 95.5879 148.866 95.5925 148.456 95.4104L148.47 95.4095Z" fill="#F8F8F8"/>
<path d="M151.562 90.6864C151.662 90.0212 152.022 89.4138 152.759 89.1022C152.84 89.0619 152.937 89.1055 152.977 89.1858C153.013 89.2775 152.969 89.3756 152.888 89.4118C152.269 89.6828 151.995 90.1561 151.891 90.7326C151.838 91.0541 151.86 91.4092 151.92 91.7552C152.073 91.3422 152.392 90.9898 152.834 90.8205C153.665 90.5014 154.582 90.9101 154.897 91.7272C155.212 92.5496 154.807 93.4654 153.983 93.7869C153.178 94.0958 152.28 93.7136 151.945 92.9273C151.895 92.8368 151.859 92.7407 151.819 92.6366C151.593 92.0378 151.463 91.3368 151.567 90.6846L151.562 90.6864ZM152.248 92.7824C152.261 92.8159 152.279 92.8377 152.293 92.8612C152.301 92.882 152.305 92.8947 152.302 92.9101C152.601 93.4509 153.266 93.7027 153.854 93.4772C154.509 93.2253 154.832 92.4944 154.585 91.8522C154.339 91.209 153.607 90.8875 152.952 91.1384C152.31 91.3857 151.987 92.1166 152.234 92.7589L152.244 92.7842L152.248 92.7824Z" fill="#F8F8F8"/>
<path d="M128.036 112.685L88.8539 127.843L89.5987 129.768L128.781 114.609L128.036 112.685Z" fill="url(#paint11_linear_19_3865)"/>
<path d="M118.249 121.391L90.5092 132.123L91.2536 134.048L118.994 123.316L118.249 121.391Z" fill="url(#paint12_linear_19_3865)"/>
<path d="M128.828 75.352L111.214 82.1663C110.682 82.3721 110.418 82.9697 110.623 83.5013C110.829 84.0329 111.427 84.2972 111.958 84.0915L129.572 77.2772C130.104 77.0715 130.368 76.4739 130.162 75.9423C129.957 75.4106 129.359 75.1463 128.828 75.352Z" fill="#3B3B3B"/>
<path d="M161.106 124.534L69.3008 142.38L76.445 179.134L168.251 161.289L161.106 124.534Z" fill="url(#paint13_linear_19_3865)"/>
<path opacity="0.2" d="M161.106 124.534L69.3008 142.38L76.445 179.134L168.251 161.289L161.106 124.534Z" fill="black"/>
<path d="M169.586 183.286L79.1364 187.863C74.6328 188.091 70.6475 184.972 69.7871 180.545L56.7668 113.561C56.4595 111.981 58.0837 110.725 59.5365 111.419C61.2224 112.225 63.0958 112.566 64.963 112.408L146.217 105.458C150.83 105.063 154.997 108.21 155.88 112.754L169.59 183.281C169.59 183.282 169.588 183.285 169.586 183.286Z" fill="url(#paint14_linear_19_3865)"/>
<path d="M150.374 150.298C152.479 149.889 153.808 147.613 153.342 145.216C152.876 142.818 150.792 141.206 148.687 141.614C146.582 142.023 145.253 144.299 145.719 146.697C146.186 149.095 148.27 150.707 150.374 150.298Z" fill="#EBEBEB"/>
<path d="M151.303 145.613C151.519 146.727 150.901 147.785 149.923 147.974C148.945 148.164 147.976 147.415 147.759 146.301C147.543 145.188 148.16 144.13 149.139 143.94C150.117 143.749 151.086 144.499 151.303 145.613Z" fill="#DBDBDB"/>
</g>
<defs>
<filter id="filter0_f_19_3865" x="-5.08691" y="-5.08691" width="260.174" height="260.174" filterUnits="userSpaceOnUse" color-interpolation-filters="sRGB">
<feFlood flood-opacity="0" result="BackgroundImageFix"/>
<feBlend mode="normal" in="SourceGraphic" in2="BackgroundImageFix" result="shape"/>
<feGaussianBlur stdDeviation="27" result="effect1_foregroundBlur_19_3865"/>
</filter>
<linearGradient id="paint0_linear_19_3865" x1="49.8944" y1="20.833" x2="208.898" y2="53.9317" gradientUnits="userSpaceOnUse">
<stop stop-color="#A259FF"/>
<stop offset="1" stop-color="#3B3B3B"/>
</linearGradient>
<linearGradient id="paint1_linear_19_3865" x1="73.5508" y1="48.9131" x2="220.705" y2="77.2927" gradientUnits="userSpaceOnUse">
<stop stop-color="#A259FF" stop-opacity="0"/>
<stop offset="1" stop-color="#FF6250"/>
</linearGradient>
<linearGradient id="paint2_linear_19_3865" x1="204.428" y1="198.491" x2="217.771" y2="208.97" gradientUnits="userSpaceOnUse">
<stop stop-color="#A259FF"/>
<stop offset="1" stop-color="#377DF7"/>
</linearGradient>
<linearGradient id="paint3_linear_19_3865" x1="52.8953" y1="213.338" x2="52.4496" y2="226.614" gradientUnits="userSpaceOnUse">
<stop stop-color="#A259FF"/>
<stop offset="1" stop-color="#377DF7"/>
</linearGradient>
<linearGradient id="paint4_linear_19_3865" x1="209.354" y1="60.9223" x2="222.615" y2="60.1618" gradientUnits="userSpaceOnUse">
<stop stop-color="#A259FF"/>
<stop offset="1" stop-color="#377DF7"/>
</linearGradient>
<linearGradient id="paint5_linear_19_3865" x1="159.014" y1="121.438" x2="191.714" y2="127.092" gradientUnits="userSpaceOnUse">
<stop stop-color="#A259FF"/>
<stop offset="1" stop-color="#3B3B3B"/>
</linearGradient>
<linearGradient id="paint6_linear_19_3865" x1="137.498" y1="203.71" x2="102.173" y2="134.339" gradientUnits="userSpaceOnUse">
<stop stop-color="#A259FF"/>
<stop offset="1" stop-color="#3B3B3B"/>
</linearGradient>
<linearGradient id="paint7_linear_19_3865" x1="79.7248" y1="85.054" x2="164.798" y2="77.7059" gradientUnits="userSpaceOnUse">
<stop stop-color="#A259FF"/>
<stop offset="1" stop-color="#FF6250"/>
</linearGradient>
<linearGradient id="paint8_linear_19_3865" x1="145.173" y1="105.54" x2="154.102" y2="103.952" gradientUnits="userSpaceOnUse">
<stop stop-color="#A259FF"/>
<stop offset="1" stop-color="#FF6250"/>
</linearGradient>
<linearGradient id="paint9_linear_19_3865" x1="150.46" y1="103.491" x2="159.389" y2="101.904" gradientUnits="userSpaceOnUse">
<stop stop-color="#A259FF"/>
<stop offset="1" stop-color="#3B3B3B"/>
</linearGradient>
<linearGradient id="paint10_linear_19_3865" x1="78.9033" y1="94.6712" x2="94.8722" y2="93.1169" gradientUnits="userSpaceOnUse">
<stop stop-color="#A259FF"/>
<stop offset="1" stop-color="#3B3B3B"/>
</linearGradient>
<linearGradient id="paint11_linear_19_3865" x1="95.1974" y1="125.388" x2="101.23" y2="133.864" gradientUnits="userSpaceOnUse">
<stop stop-color="#A259FF"/>
<stop offset="1" stop-color="#FF6250"/>
</linearGradient>
<linearGradient id="paint12_linear_19_3865" x1="95" y1="130.385" x2="101.62" y2="138.016" gradientUnits="userSpaceOnUse">
<stop stop-color="#A259FF"/>
<stop offset="1" stop-color="#FF6250"/>
</linearGradient>
<linearGradient id="paint13_linear_19_3865" x1="84.1645" y1="139.491" x2="165.898" y2="160.965" gradientUnits="userSpaceOnUse">
<stop stop-color="#A259FF"/>
<stop offset="1" stop-color="#3B3B3B"/>
</linearGradient>
<linearGradient id="paint14_linear_19_3865" x1="145.195" y1="160.975" x2="3.60611" y2="93.0225" gradientUnits="userSpaceOnUse">
<stop stop-color="#A259FF"/>
<stop offset="0.666667" stop-color="white"/>
</linearGradient>
<clipPath id="clip0_19_3865">
<rect width="250" height="250" fill="white"/>
</clipPath>
</defs>
</svg>
