<svg width="250" height="250" viewBox="0 0 250 250" fill="none" xmlns="http://www.w3.org/2000/svg">
<g clip-path="url(#clip0_19_3940)">
<path d="M125 229.166C182.53 229.166 229.167 182.53 229.167 125C229.167 67.4701 182.53 20.833 125 20.833C67.4703 20.833 20.8334 67.4701 20.8334 125C20.8334 182.53 67.4703 229.166 125 229.166Z" fill="url(#paint0_linear_19_3940)"/>
<g filter="url(#filter0_f_19_3940)">
<path d="M131.341 201.087C169.861 201.087 201.087 169.86 201.087 131.34C201.087 92.8203 169.861 61.5938 131.341 61.5938C92.8208 61.5938 61.5942 92.8203 61.5942 131.34C61.5942 169.86 92.8208 201.087 131.341 201.087Z" fill="url(#paint1_linear_19_3940)"/>
</g>
<path fillRule="evenodd" clipRule="evenodd" d="M56.2467 82.0468C57.9895 82.0468 59.4022 80.634 59.4022 78.8912C59.4022 77.1486 57.9895 75.7358 56.2467 75.7358C54.504 75.7358 53.0913 77.1486 53.0913 78.8912C53.0913 80.634 54.504 82.0468 56.2467 82.0468ZM56.2467 84.4134C59.2965 84.4134 61.7689 81.9411 61.7689 78.8912C61.7689 75.8415 59.2965 73.3691 56.2467 73.3691C53.197 73.3691 50.7246 75.8415 50.7246 78.8912C50.7246 81.9411 53.197 84.4134 56.2467 84.4134Z" fill="white"/>
<path fillRule="evenodd" clipRule="evenodd" d="M46.283 179.873C48.0257 179.873 49.4385 178.46 49.4385 176.717C49.4385 174.974 48.0257 173.562 46.283 173.562C44.5403 173.562 43.1275 174.974 43.1275 176.717C43.1275 178.46 44.5403 179.873 46.283 179.873ZM46.283 182.24C49.3328 182.24 51.8052 179.767 51.8052 176.717C51.8052 173.667 49.3328 171.195 46.283 171.195C43.2332 171.195 40.7609 173.667 40.7609 176.717C40.7609 179.767 43.2332 182.24 46.283 182.24Z" fill="white"/>
<path fillRule="evenodd" clipRule="evenodd" d="M193.022 46.7216C194.764 46.7216 196.178 45.3088 196.178 43.566C196.178 41.8234 194.764 40.4106 193.022 40.4106C191.279 40.4106 189.867 41.8234 189.867 43.566C189.867 45.3088 191.279 46.7216 193.022 46.7216ZM193.022 49.0882C196.072 49.0882 198.544 46.6159 198.544 43.566C198.544 40.5163 196.072 38.0439 193.022 38.0439C189.972 38.0439 187.5 40.5163 187.5 43.566C187.5 46.6159 189.972 49.0882 193.022 49.0882Z" fill="white"/>
<path d="M59.2308 38.2143C59.4628 37.2528 60.8305 37.2528 61.0626 38.2143L61.8437 41.4503C61.9267 41.7939 62.1949 42.0622 62.5386 42.1452L65.7746 42.9263C66.7361 43.1584 66.7361 44.5261 65.7746 44.7581L62.5386 45.5393C62.1949 45.6223 61.9267 45.8905 61.8437 46.2341L61.0626 49.4702C60.8305 50.4317 59.4628 50.4317 59.2308 49.4702L58.4496 46.2341C58.3666 45.8905 58.0984 45.6223 57.7548 45.5393L54.5187 44.7581C53.5572 44.5261 53.5572 43.1584 54.5187 42.9263L57.7548 42.1452C58.0984 42.0622 58.3666 41.7939 58.4496 41.4503L59.2308 38.2143Z" fill="white"/>
<path d="M204.976 71.1879C205.23 70.134 206.729 70.134 206.984 71.1879L207.841 74.735C207.931 75.1116 208.226 75.4057 208.601 75.4967L212.149 76.3529C213.203 76.6073 213.203 78.1064 212.149 78.3608L208.601 79.217C208.226 79.308 207.931 79.602 207.841 79.9786L206.984 83.5258C206.729 84.5797 205.23 84.5797 204.976 83.5258L204.12 79.9786C204.029 79.602 203.735 79.308 203.358 79.217L199.811 78.3608C198.757 78.1064 198.757 76.6073 199.811 76.3529L203.358 75.4967C203.735 75.4057 204.029 75.1116 204.12 74.735L204.976 71.1879Z" fill="url(#paint2_linear_19_3940)"/>
<path d="M49.8471 200.397C51.0464 200.205 52.0038 201.382 51.5705 202.517L48.6457 210.176C48.2123 211.311 46.7132 211.551 45.9473 210.608L40.7771 204.245C40.0111 203.303 40.5527 201.885 41.752 201.693L49.8471 200.397Z" fill="url(#paint3_linear_19_3940)"/>
<path d="M191.103 182.977C190.803 181.799 191.89 180.739 193.059 181.067L200.952 183.286C202.12 183.614 202.496 185.085 201.627 185.933L195.76 191.66C194.89 192.508 193.429 192.097 193.129 190.92L191.103 182.977Z" fill="url(#paint4_linear_19_3940)"/>
<g filter="url(#filter1_f_19_3940)">
<path d="M180.277 205.132C180.277 210.721 153.765 215.251 121.062 215.251C88.3596 215.251 61.8485 210.721 61.8485 205.132C61.8485 199.544 88.3596 195.014 121.062 195.014C153.765 195.014 180.277 199.544 180.277 205.132Z" fill="url(#paint5_radial_19_3940)"/>
</g>
<g filter="url(#filter2_i_19_3940)">
<path d="M122.215 59.8649L83.6472 66.6653C80.5489 67.2117 78.48 70.1663 79.0263 73.2647L88.7465 128.391C89.2928 131.489 92.2475 133.558 95.3459 133.011L133.913 126.211C137.012 125.665 139.081 122.71 138.535 119.612L128.814 64.4858C128.267 61.3874 125.313 59.3185 122.215 59.8649Z" fill="url(#paint6_linear_19_3940)"/>
</g>
<path d="M122.773 88.2023L92.8129 93.4851C91.804 93.663 91.1304 94.6251 91.3083 95.6339L91.3094 95.6398C91.4873 96.6487 92.4493 97.3223 93.4581 97.1444L123.419 91.8616C124.427 91.6837 125.101 90.7217 124.923 89.7128L124.922 89.7069C124.744 88.6981 123.782 88.0244 122.773 88.2023Z" fill="url(#paint7_linear_19_3940)"/>
<path d="M127.33 113.947L97.628 119.184C96.6278 119.361 95.9567 120.296 96.129 121.273L96.13 121.279C96.3024 122.257 97.2529 122.906 98.2531 122.73L127.955 117.492C128.956 117.316 129.627 116.381 129.454 115.403L129.454 115.397C129.281 114.42 128.33 113.77 127.33 113.947Z" fill="url(#paint8_linear_19_3940)"/>
<path d="M124.956 100.477L95.253 105.714C94.2528 105.891 93.5817 106.826 93.754 107.803L93.755 107.81C93.9273 108.787 94.8779 109.436 95.878 109.26L125.581 104.022C126.581 103.846 127.252 102.911 127.08 101.933L127.079 101.927C126.906 100.95 125.956 100.301 124.956 100.477Z" fill="url(#paint9_linear_19_3940)"/>
<path d="M100.406 72.4884L91.6506 74.0321C89.7112 74.3741 88.4163 76.2235 88.7583 78.1628L89.1867 80.5925C89.5286 82.5318 91.378 83.8268 93.3174 83.4848L102.072 81.9411C104.012 81.5991 105.307 79.7498 104.965 77.8104L104.536 75.3807C104.195 73.4413 102.345 72.1464 100.406 72.4884Z" fill="#A259FF"/>
<g filter="url(#filter3_i_19_3940)">
<path d="M168.178 75.0664H117.15C114.773 75.0664 112.845 76.994 112.845 79.3718V103.356C112.845 105.734 114.773 107.662 117.15 107.662H168.178C170.555 107.662 172.483 105.734 172.483 103.356V79.3718C172.483 76.994 170.555 75.0664 168.178 75.0664Z" fill="url(#paint10_linear_19_3940)"/>
</g>
<path d="M125.439 96.3097C128.173 96.3097 130.389 94.0936 130.389 91.3599C130.389 88.6262 128.173 86.4102 125.439 86.4102C122.706 86.4102 120.49 88.6262 120.49 91.3599C120.49 94.0936 122.706 96.3097 125.439 96.3097Z" fill="white"/>
<path d="M143.128 96.3097C145.862 96.3097 148.078 94.0936 148.078 91.3599C148.078 88.6262 145.862 86.4102 143.128 86.4102C140.395 86.4102 138.178 88.6262 138.178 91.3599C138.178 94.0936 140.395 96.3097 143.128 96.3097Z" fill="white"/>
<path d="M160.817 96.3097C163.551 96.3097 165.766 94.0936 165.766 91.3599C165.766 88.6262 163.551 86.4102 160.817 86.4102C158.083 86.4102 155.867 88.6262 155.867 91.3599C155.867 94.0936 158.083 96.3097 160.817 96.3097Z" fill="white"/>
<path fillRule="evenodd" clipRule="evenodd" d="M116.139 161.245C116.566 158.818 118.88 157.199 121.306 157.626L146.795 162.121C150.277 162.735 153.425 164.352 155.656 166.689C157.886 169.024 159.397 172.343 158.749 176.019C158.101 179.695 155.545 182.298 152.652 183.731C149.757 185.165 146.245 185.611 142.761 184.997L82.1975 174.317C79.7714 173.89 78.1513 171.575 78.5791 169.15C79.0069 166.723 81.3205 165.103 83.7468 165.531L144.311 176.21C146.117 176.528 147.672 176.242 148.693 175.737C149.715 175.23 149.925 174.689 149.963 174.47C150.001 174.253 149.99 173.674 149.204 172.85C148.418 172.026 147.054 171.226 145.246 170.907L119.652 165.504C117.227 165.076 115.71 163.67 116.139 161.245Z" fill="url(#paint11_linear_19_3940)"/>
<path fillRule="evenodd" clipRule="evenodd" d="M165.37 115.83C166.329 113.771 168.551 112.613 170.788 113.007L190.77 116.531C193.498 117.012 195.321 119.613 194.84 122.342C194.358 125.071 191.756 126.892 189.028 126.411L172.839 123.556L163.275 144.084C162.106 146.596 159.121 147.683 156.609 146.513C154.099 145.343 153.011 142.359 154.181 139.848L165.37 115.83Z" fill="url(#paint12_linear_19_3940)"/>
<path d="M94.1484 192.088C100.059 193.131 105.696 189.184 106.738 183.273C107.78 177.362 103.833 171.726 97.9226 170.684C92.0119 169.641 86.3753 173.588 85.3331 179.499C84.2908 185.41 88.2376 191.046 94.1484 192.088Z" fill="url(#paint13_linear_19_3940)"/>
<path d="M160.761 124.9L87.0078 111.895C81.4792 110.92 76.5687 114.89 76.9539 120.016L77.8749 149.929C78.1543 153.632 81.1762 156.756 85.1691 157.46L149.458 173.135L167.447 135.986C171.592 128.462 166.303 125.877 160.761 124.9Z" fill="url(#paint14_linear_19_3940)"/>
<path d="M94.789 186.726C97.7585 187.25 100.59 185.267 101.114 182.298C101.637 179.328 99.6547 176.496 96.6851 175.973C93.7156 175.449 90.8839 177.432 90.3602 180.402C89.8366 183.371 91.8195 186.203 94.789 186.726Z" fill="url(#paint15_linear_19_3940)"/>
<mask id="mask0_19_3940" style="mask-type:alpha" maskUnits="userSpaceOnUse" x="76" y="111" width="93" height="63">
<path d="M160.761 124.9L87.0074 111.895C81.4787 110.92 76.5682 114.89 76.9534 120.016L77.8744 149.929C78.1538 153.632 81.1757 156.756 85.1686 157.46L149.458 173.135L167.447 135.986C169.564 131.287 166.303 125.877 160.761 124.9Z" fill="url(#paint16_linear_19_3940)"/>
</mask>
<g mask="url(#mask0_19_3940)">
<path d="M125.076 144.625C125.396 142.931 127.029 141.813 128.724 142.126C130.418 142.439 131.532 144.066 131.212 145.759L126.99 168.089C126.67 169.782 125.037 170.901 123.343 170.588C121.649 170.275 120.534 168.648 120.854 166.955L125.076 144.625Z" fill="#A259FF"/>
<path d="M180.173 130.101C181.588 130.347 182.54 131.694 182.301 133.11L182.127 134.135C181.887 135.551 180.545 136.499 179.13 136.254L76.0073 118.343C74.5926 118.097 73.6403 116.75 73.8803 115.335L74.0541 114.31C74.294 112.894 75.6354 111.946 77.0501 112.191L180.173 130.101Z" fill="#A259FF"/>
<path d="M142.431 147.761C142.751 146.068 144.384 144.949 146.078 145.263C147.773 145.576 148.887 147.203 148.566 148.896L144.345 171.226C144.025 172.919 142.392 174.038 140.697 173.725C139.004 173.412 137.89 171.785 138.209 170.092L142.431 147.761Z" fill="#A259FF"/>
<path d="M107.724 141.488C108.043 139.795 109.677 138.676 111.37 138.989C113.065 139.302 114.179 140.929 113.859 142.622L109.638 164.953C109.318 166.646 107.685 167.764 105.99 167.452C104.296 167.138 103.182 165.512 103.502 163.819L107.724 141.488Z" fill="#A259FF"/>
<path d="M90.1705 138.394C90.4906 136.701 92.1236 135.583 93.8179 135.895C95.5122 136.209 96.6263 137.835 96.3062 139.528L92.0848 161.859C91.7648 163.552 90.1318 164.67 88.4374 164.358C86.7431 164.045 85.629 162.418 85.9491 160.725L90.1705 138.394Z" fill="#A259FF"/>
<path d="M74.9284 112.21C75.2525 110.371 77.0055 109.144 78.8438 109.468L168.97 125.359C170.808 125.684 172.036 127.437 171.711 129.275C171.387 131.114 169.634 132.341 167.796 132.017L77.67 116.125C75.8317 115.801 74.6043 114.048 74.9284 112.21Z" fill="url(#paint17_linear_19_3940)"/>
</g>
</g>
<defs>
<filter id="filter0_f_19_3940" x="7.59424" y="7.59375" width="247.493" height="247.493" filterUnits="userSpaceOnUse" color-interpolation-filters="sRGB">
<feFlood flood-opacity="0" result="BackgroundImageFix"/>
<feBlend mode="normal" in="SourceGraphic" in2="BackgroundImageFix" result="shape"/>
<feGaussianBlur stdDeviation="27" result="effect1_foregroundBlur_19_3940"/>
</filter>
<filter id="filter1_f_19_3940" x="41.1611" y="174.326" width="159.803" height="61.6121" filterUnits="userSpaceOnUse" color-interpolation-filters="sRGB">
<feFlood flood-opacity="0" result="BackgroundImageFix"/>
<feBlend mode="normal" in="SourceGraphic" in2="BackgroundImageFix" result="shape"/>
<feGaussianBlur stdDeviation="10.3437" result="effect1_foregroundBlur_19_3940"/>
</filter>
<filter id="filter2_i_19_3940" x="78.9388" y="59.7773" width="62.0678" height="78.8852" filterUnits="userSpaceOnUse" color-interpolation-filters="sRGB">
<feFlood flood-opacity="0" result="BackgroundImageFix"/>
<feBlend mode="normal" in="SourceGraphic" in2="BackgroundImageFix" result="shape"/>
<feColorMatrix in="SourceAlpha" type="matrix" values="0 0 0 0 0 0 0 0 0 0 0 0 0 0 0 0 0 0 127 0" result="hardAlpha"/>
<feOffset dx="2.38455" dy="5.56394"/>
<feGaussianBlur stdDeviation="5.96137"/>
<feComposite in2="hardAlpha" operator="arithmetic" k2="-1" k3="1"/>
<feColorMatrix type="matrix" values="0 0 0 0 0.104618 0 0 0 0 0.465612 0 0 0 0 0.545833 0 0 0 0.15 0"/>
<feBlend mode="normal" in2="shape" result="effect1_innerShadow_19_3940"/>
</filter>
<filter id="filter3_i_19_3940" x="112.845" y="75.0664" width="65.2635" height="36.3453" filterUnits="userSpaceOnUse" color-interpolation-filters="sRGB">
<feFlood flood-opacity="0" result="BackgroundImageFix"/>
<feBlend mode="normal" in="SourceGraphic" in2="BackgroundImageFix" result="shape"/>
<feColorMatrix in="SourceAlpha" type="matrix" values="0 0 0 0 0 0 0 0 0 0 0 0 0 0 0 0 0 0 127 0" result="hardAlpha"/>
<feOffset dx="5.62585" dy="3.75056"/>
<feGaussianBlur stdDeviation="6.09467"/>
<feComposite in2="hardAlpha" operator="arithmetic" k2="-1" k3="1"/>
<feColorMatrix type="matrix" values="0 0 0 0 0.104618 0 0 0 0 0.465612 0 0 0 0 0.545833 0 0 0 0.09 0"/>
<feBlend mode="normal" in2="shape" result="effect1_innerShadow_19_3940"/>
</filter>
<linearGradient id="paint0_linear_19_3940" x1="49.8944" y1="20.833" x2="208.898" y2="53.9317" gradientUnits="userSpaceOnUse">
<stop stop-color="#A259FF"/>
<stop offset="1" stop-color="#3B3B3B"/>
</linearGradient>
<linearGradient id="paint1_linear_19_3940" x1="161.232" y1="187.801" x2="114.715" y2="182.499" gradientUnits="userSpaceOnUse">
<stop stop-color="#A259FF" stop-opacity="0"/>
<stop offset="1" stop-color="#FF6250"/>
</linearGradient>
<linearGradient id="paint2_linear_19_3940" x1="208.956" y1="73.4905" x2="222.298" y2="83.9702" gradientUnits="userSpaceOnUse">
<stop stop-color="#A259FF"/>
<stop offset="1" stop-color="#377DF7"/>
</linearGradient>
<linearGradient id="paint3_linear_19_3940" x1="51.0839" y1="204.281" x2="50.6382" y2="217.556" gradientUnits="userSpaceOnUse">
<stop stop-color="#A259FF"/>
<stop offset="1" stop-color="#377DF7"/>
</linearGradient>
<linearGradient id="paint4_linear_19_3940" x1="194.86" y1="181.392" x2="208.12" y2="180.632" gradientUnits="userSpaceOnUse">
<stop stop-color="#A259FF"/>
<stop offset="1" stop-color="#377DF7"/>
</linearGradient>
<radialGradient id="paint5_radial_19_3940" cx="0" cy="0" r="1" gradientUnits="userSpaceOnUse" gradientTransform="translate(121.062 205.132) rotate(90) scale(10.1188 59.2142)">
<stop stop-color="#2B2B2B"/>
<stop offset="1" stop-color="#2B2B2B" stop-opacity="0"/>
</radialGradient>
<linearGradient id="paint6_linear_19_3940" x1="86.098" y1="66.2332" x2="136.257" y2="64.6874" gradientUnits="userSpaceOnUse">
<stop stop-color="#A259FF"/>
<stop offset="1" stop-color="#3B3B3B"/>
</linearGradient>
<linearGradient id="paint7_linear_19_3940" x1="118.271" y1="91.702" x2="114.978" y2="81.9423" gradientUnits="userSpaceOnUse">
<stop stop-color="#A259FF"/>
<stop offset="0.666667" stop-color="white"/>
</linearGradient>
<linearGradient id="paint8_linear_19_3940" x1="122.857" y1="117.357" x2="119.697" y2="107.886" gradientUnits="userSpaceOnUse">
<stop stop-color="#A259FF"/>
<stop offset="0.666667" stop-color="white"/>
</linearGradient>
<linearGradient id="paint9_linear_19_3940" x1="120.481" y1="103.887" x2="117.322" y2="94.4164" gradientUnits="userSpaceOnUse">
<stop stop-color="#A259FF"/>
<stop offset="0.666667" stop-color="white"/>
</linearGradient>
<linearGradient id="paint10_linear_19_3940" x1="112.845" y1="114.984" x2="149.544" y2="59.9061" gradientUnits="userSpaceOnUse">
<stop stop-color="#A259FF"/>
<stop offset="1" stop-color="#FF6250"/>
</linearGradient>
<linearGradient id="paint11_linear_19_3940" x1="141.925" y1="178.176" x2="129.343" y2="119.127" gradientUnits="userSpaceOnUse">
<stop stop-color="#A259FF"/>
<stop offset="0.666667" stop-color="white"/>
</linearGradient>
<linearGradient id="paint12_linear_19_3940" x1="183.859" y1="123.352" x2="212.899" y2="157.154" gradientUnits="userSpaceOnUse">
<stop stop-color="#A259FF"/>
<stop offset="1" stop-color="#377DF7"/>
</linearGradient>
<linearGradient id="paint13_linear_19_3940" x1="101.594" y1="187.157" x2="76.7702" y2="161.795" gradientUnits="userSpaceOnUse">
<stop stop-color="#A259FF"/>
<stop offset="0.666667" stop-color="white"/>
</linearGradient>
<linearGradient id="paint14_linear_19_3940" x1="145.222" y1="158.179" x2="95.3253" y2="58.7027" gradientUnits="userSpaceOnUse">
<stop stop-color="#A259FF"/>
<stop offset="0.666667" stop-color="white"/>
</linearGradient>
<linearGradient id="paint15_linear_19_3940" x1="89.5636" y1="183.031" x2="105.056" y2="186.017" gradientUnits="userSpaceOnUse">
<stop stop-color="white"/>
<stop offset="1" stop-color="#BCF3FF"/>
</linearGradient>
<linearGradient id="paint16_linear_19_3940" x1="76.3052" y1="121.765" x2="167.649" y2="138.999" gradientUnits="userSpaceOnUse">
<stop stop-color="#AFF1FF"/>
<stop offset="1" stop-color="#65C8DE"/>
</linearGradient>
<linearGradient id="paint17_linear_19_3940" x1="151.901" y1="127.272" x2="153.386" y2="108.464" gradientUnits="userSpaceOnUse">
<stop stop-color="#A259FF"/>
<stop offset="0.666667" stop-color="white"/>
</linearGradient>
<clipPath id="clip0_19_3940">
<rect width="250" height="250" fill="white"/>
</clipPath>
</defs>
</svg>
